<mxfile host="Electron" agent="Mozilla/5.0 (Windows NT 10.0; Win64; x64) AppleWebKit/537.36 (KHTML, like Gecko) draw.io/26.2.15 Chrome/134.0.6998.205 Electron/35.2.1 Safari/537.36" version="26.2.15">
  <diagram name="Page-1" id="ElTPDXhuxOExpY2mE9RY">
    <mxGraphModel dx="463" dy="850" grid="1" gridSize="10" guides="1" tooltips="1" connect="1" arrows="1" fold="1" page="1" pageScale="1" pageWidth="850" pageHeight="1100" math="0" shadow="0">
      <root>
        <mxCell id="0" />
        <mxCell id="1" parent="0" />
        <mxCell id="VfR8MXw1W6IQDtvmbxLF-1" value="" style="rounded=0;whiteSpace=wrap;html=1;dashed=1;" parent="1" vertex="1">
          <mxGeometry x="60" y="120" width="120" height="380" as="geometry" />
        </mxCell>
        <mxCell id="VfR8MXw1W6IQDtvmbxLF-2" value="" style="rounded=1;whiteSpace=wrap;html=1;direction=south;dashed=1;fillColor=none;strokeColor=#d79b00;" parent="1" vertex="1">
          <mxGeometry x="230" y="170" width="150" height="330" as="geometry" />
        </mxCell>
        <mxCell id="VfR8MXw1W6IQDtvmbxLF-5" value="&lt;b&gt;&lt;font style=&quot;font-size: 18px;&quot;&gt;Sources&lt;/font&gt;&lt;/b&gt;" style="rounded=1;whiteSpace=wrap;html=1;dashed=1;dashPattern=1 4;strokeColor=none;" parent="1" vertex="1">
          <mxGeometry x="65" y="92.5" width="110" height="45" as="geometry" />
        </mxCell>
        <mxCell id="VfR8MXw1W6IQDtvmbxLF-22" style="edgeStyle=orthogonalEdgeStyle;rounded=0;orthogonalLoop=1;jettySize=auto;html=1;entryX=0;entryY=0.5;entryDx=0;entryDy=0;" parent="1" source="VfR8MXw1W6IQDtvmbxLF-7" target="VfR8MXw1W6IQDtvmbxLF-14" edge="1">
          <mxGeometry relative="1" as="geometry">
            <Array as="points">
              <mxPoint x="190" y="255" />
              <mxPoint x="190" y="249" />
            </Array>
          </mxGeometry>
        </mxCell>
        <mxCell id="VfR8MXw1W6IQDtvmbxLF-7" value="" style="image;aspect=fixed;html=1;points=[];align=center;fontSize=12;image=img/lib/azure2/general/Folder_Blank.svg;" parent="1" vertex="1">
          <mxGeometry x="90" y="230" width="61.61" height="50" as="geometry" />
        </mxCell>
        <mxCell id="VfR8MXw1W6IQDtvmbxLF-27" style="edgeStyle=orthogonalEdgeStyle;rounded=0;orthogonalLoop=1;jettySize=auto;html=1;entryX=0;entryY=0.5;entryDx=0;entryDy=0;" parent="1" source="VfR8MXw1W6IQDtvmbxLF-8" target="VfR8MXw1W6IQDtvmbxLF-17" edge="1">
          <mxGeometry relative="1" as="geometry" />
        </mxCell>
        <mxCell id="VfR8MXw1W6IQDtvmbxLF-28" style="edgeStyle=orthogonalEdgeStyle;rounded=0;orthogonalLoop=1;jettySize=auto;html=1;entryX=0;entryY=0.5;entryDx=0;entryDy=0;" parent="1" source="VfR8MXw1W6IQDtvmbxLF-8" target="VfR8MXw1W6IQDtvmbxLF-19" edge="1">
          <mxGeometry relative="1" as="geometry" />
        </mxCell>
        <mxCell id="VfR8MXw1W6IQDtvmbxLF-29" style="edgeStyle=orthogonalEdgeStyle;rounded=0;orthogonalLoop=1;jettySize=auto;html=1;entryX=0;entryY=0.5;entryDx=0;entryDy=0;" parent="1" source="VfR8MXw1W6IQDtvmbxLF-8" target="VfR8MXw1W6IQDtvmbxLF-18" edge="1">
          <mxGeometry relative="1" as="geometry" />
        </mxCell>
        <mxCell id="VfR8MXw1W6IQDtvmbxLF-8" value="" style="image;aspect=fixed;html=1;points=[];align=center;fontSize=12;image=img/lib/azure2/general/Folder_Blank.svg;" parent="1" vertex="1">
          <mxGeometry x="84.39" y="380" width="61.61" height="50" as="geometry" />
        </mxCell>
        <mxCell id="VfR8MXw1W6IQDtvmbxLF-10" value="CRM" style="text;html=1;align=center;verticalAlign=middle;whiteSpace=wrap;rounded=0;" parent="1" vertex="1">
          <mxGeometry x="90" y="280" width="60" height="20" as="geometry" />
        </mxCell>
        <mxCell id="VfR8MXw1W6IQDtvmbxLF-11" value="ERP" style="text;html=1;align=center;verticalAlign=middle;whiteSpace=wrap;rounded=0;" parent="1" vertex="1">
          <mxGeometry x="86" y="430" width="60" height="20" as="geometry" />
        </mxCell>
        <mxCell id="VfR8MXw1W6IQDtvmbxLF-13" value="&lt;b&gt;Bronze Layer&lt;/b&gt;" style="rounded=1;whiteSpace=wrap;html=1;fillColor=#ffe6cc;strokeColor=#d79b00;" parent="1" vertex="1">
          <mxGeometry x="240" y="120" width="120" height="37.5" as="geometry" />
        </mxCell>
        <mxCell id="XH7IU8aR829M95zQJCeb-10" style="edgeStyle=orthogonalEdgeStyle;rounded=0;orthogonalLoop=1;jettySize=auto;html=1;entryX=0;entryY=0.5;entryDx=0;entryDy=0;" parent="1" source="VfR8MXw1W6IQDtvmbxLF-14" target="XH7IU8aR829M95zQJCeb-4" edge="1">
          <mxGeometry relative="1" as="geometry" />
        </mxCell>
        <mxCell id="VfR8MXw1W6IQDtvmbxLF-14" value="crm_cust_info" style="rounded=1;whiteSpace=wrap;html=1;fillColor=#ffe6cc;strokeColor=#d79b00;" parent="1" vertex="1">
          <mxGeometry x="240" y="230" width="130" height="37.5" as="geometry" />
        </mxCell>
        <mxCell id="XH7IU8aR829M95zQJCeb-11" style="edgeStyle=orthogonalEdgeStyle;rounded=0;orthogonalLoop=1;jettySize=auto;html=1;entryX=0;entryY=0.5;entryDx=0;entryDy=0;" parent="1" source="VfR8MXw1W6IQDtvmbxLF-15" target="XH7IU8aR829M95zQJCeb-5" edge="1">
          <mxGeometry relative="1" as="geometry" />
        </mxCell>
        <mxCell id="VfR8MXw1W6IQDtvmbxLF-15" value="crm_prd_info" style="rounded=1;whiteSpace=wrap;html=1;fillColor=#ffe6cc;strokeColor=#d79b00;" parent="1" vertex="1">
          <mxGeometry x="240" y="280" width="120" height="37.5" as="geometry" />
        </mxCell>
        <mxCell id="XH7IU8aR829M95zQJCeb-12" style="edgeStyle=orthogonalEdgeStyle;rounded=0;orthogonalLoop=1;jettySize=auto;html=1;entryX=0;entryY=0.5;entryDx=0;entryDy=0;" parent="1" source="VfR8MXw1W6IQDtvmbxLF-16" target="XH7IU8aR829M95zQJCeb-6" edge="1">
          <mxGeometry relative="1" as="geometry" />
        </mxCell>
        <mxCell id="VfR8MXw1W6IQDtvmbxLF-16" value="crm_sales_details" style="rounded=1;whiteSpace=wrap;html=1;fillColor=#ffe6cc;strokeColor=#d79b00;" parent="1" vertex="1">
          <mxGeometry x="240" y="186.25" width="130" height="37.5" as="geometry" />
        </mxCell>
        <mxCell id="XH7IU8aR829M95zQJCeb-13" style="edgeStyle=orthogonalEdgeStyle;rounded=0;orthogonalLoop=1;jettySize=auto;html=1;entryX=0;entryY=0.5;entryDx=0;entryDy=0;" parent="1" source="VfR8MXw1W6IQDtvmbxLF-17" target="XH7IU8aR829M95zQJCeb-7" edge="1">
          <mxGeometry relative="1" as="geometry" />
        </mxCell>
        <mxCell id="VfR8MXw1W6IQDtvmbxLF-17" value="erp_cust_az12" style="rounded=1;whiteSpace=wrap;html=1;fillColor=#ffe6cc;strokeColor=#d79b00;" parent="1" vertex="1">
          <mxGeometry x="240" y="330" width="130" height="37.5" as="geometry" />
        </mxCell>
        <mxCell id="XH7IU8aR829M95zQJCeb-14" style="edgeStyle=orthogonalEdgeStyle;rounded=0;orthogonalLoop=1;jettySize=auto;html=1;entryX=0;entryY=0.5;entryDx=0;entryDy=0;" parent="1" source="VfR8MXw1W6IQDtvmbxLF-18" target="XH7IU8aR829M95zQJCeb-8" edge="1">
          <mxGeometry relative="1" as="geometry" />
        </mxCell>
        <mxCell id="VfR8MXw1W6IQDtvmbxLF-18" value="erp_loc_a101" style="rounded=1;whiteSpace=wrap;html=1;fillColor=#ffe6cc;strokeColor=#d79b00;" parent="1" vertex="1">
          <mxGeometry x="240" y="380" width="130" height="37.5" as="geometry" />
        </mxCell>
        <mxCell id="XH7IU8aR829M95zQJCeb-15" style="edgeStyle=orthogonalEdgeStyle;rounded=0;orthogonalLoop=1;jettySize=auto;html=1;entryX=0;entryY=0.5;entryDx=0;entryDy=0;" parent="1" source="VfR8MXw1W6IQDtvmbxLF-19" target="XH7IU8aR829M95zQJCeb-9" edge="1">
          <mxGeometry relative="1" as="geometry" />
        </mxCell>
        <mxCell id="VfR8MXw1W6IQDtvmbxLF-19" value="erp_px_cat_g1v2" style="rounded=1;whiteSpace=wrap;html=1;fillColor=#ffe6cc;strokeColor=#d79b00;" parent="1" vertex="1">
          <mxGeometry x="240" y="430" width="130" height="37.5" as="geometry" />
        </mxCell>
        <mxCell id="VfR8MXw1W6IQDtvmbxLF-26" style="edgeStyle=orthogonalEdgeStyle;rounded=0;orthogonalLoop=1;jettySize=auto;html=1;entryX=0.111;entryY=0.933;entryDx=0;entryDy=0;entryPerimeter=0;" parent="1" source="VfR8MXw1W6IQDtvmbxLF-7" target="VfR8MXw1W6IQDtvmbxLF-2" edge="1">
          <mxGeometry relative="1" as="geometry" />
        </mxCell>
        <mxCell id="VfR8MXw1W6IQDtvmbxLF-30" value="&lt;b&gt;&lt;font style=&quot;font-size: 25px;&quot;&gt;Data Flow&lt;/font&gt;&lt;/b&gt;" style="rounded=0;whiteSpace=wrap;html=1;" parent="1" vertex="1">
          <mxGeometry x="56" y="30" width="214" height="40" as="geometry" />
        </mxCell>
        <mxCell id="XH7IU8aR829M95zQJCeb-1" value="" style="rounded=1;whiteSpace=wrap;html=1;direction=south;dashed=1;fillColor=none;strokeColor=#d79b00;" parent="1" vertex="1">
          <mxGeometry x="430" y="170" width="150" height="330" as="geometry" />
        </mxCell>
        <mxCell id="XH7IU8aR829M95zQJCeb-3" value="&lt;b&gt;Silver Layer&lt;/b&gt;" style="rounded=1;whiteSpace=wrap;html=1;fillColor=#f5f5f5;strokeColor=#666666;fontColor=#333333;" parent="1" vertex="1">
          <mxGeometry x="440" y="120" width="120" height="37.5" as="geometry" />
        </mxCell>
        <mxCell id="XH7IU8aR829M95zQJCeb-4" value="crm_cust_info" style="rounded=1;whiteSpace=wrap;html=1;fillColor=#f5f5f5;strokeColor=#666666;fontColor=#333333;" parent="1" vertex="1">
          <mxGeometry x="440" y="230" width="130" height="37.5" as="geometry" />
        </mxCell>
        <mxCell id="XH7IU8aR829M95zQJCeb-5" value="crm_prd_info" style="rounded=1;whiteSpace=wrap;html=1;fillColor=#f5f5f5;strokeColor=#666666;fontColor=#333333;" parent="1" vertex="1">
          <mxGeometry x="440" y="280" width="120" height="37.5" as="geometry" />
        </mxCell>
        <mxCell id="XH7IU8aR829M95zQJCeb-6" value="crm_sales_details" style="rounded=1;whiteSpace=wrap;html=1;fillColor=#f5f5f5;strokeColor=#666666;fontColor=#333333;" parent="1" vertex="1">
          <mxGeometry x="440" y="186.25" width="130" height="37.5" as="geometry" />
        </mxCell>
        <mxCell id="XH7IU8aR829M95zQJCeb-7" value="erp_cust_az12" style="rounded=1;whiteSpace=wrap;html=1;fillColor=#f5f5f5;strokeColor=#666666;fontColor=#333333;" parent="1" vertex="1">
          <mxGeometry x="440" y="330" width="130" height="37.5" as="geometry" />
        </mxCell>
        <mxCell id="XH7IU8aR829M95zQJCeb-8" value="erp_loc_a101" style="rounded=1;whiteSpace=wrap;html=1;fillColor=#f5f5f5;strokeColor=#666666;fontColor=#333333;" parent="1" vertex="1">
          <mxGeometry x="440" y="380" width="130" height="37.5" as="geometry" />
        </mxCell>
        <mxCell id="XH7IU8aR829M95zQJCeb-9" value="erp_px_cat_g1v2" style="rounded=1;whiteSpace=wrap;html=1;fillColor=#f5f5f5;strokeColor=#666666;fontColor=#333333;" parent="1" vertex="1">
          <mxGeometry x="440" y="430" width="130" height="37.5" as="geometry" />
        </mxCell>
        <mxCell id="oGLjbm6Eyn7N2ArgMFZd-1" value="" style="rounded=1;whiteSpace=wrap;html=1;direction=south;dashed=1;fillColor=none;strokeColor=#d79b00;" vertex="1" parent="1">
          <mxGeometry x="645" y="170" width="150" height="330" as="geometry" />
        </mxCell>
        <mxCell id="oGLjbm6Eyn7N2ArgMFZd-3" value="&lt;b&gt;Gold Layer&lt;/b&gt;" style="rounded=1;whiteSpace=wrap;html=1;fillColor=#fff2cc;strokeColor=#d6b656;" vertex="1" parent="1">
          <mxGeometry x="660" y="120" width="120" height="37.5" as="geometry" />
        </mxCell>
        <mxCell id="oGLjbm6Eyn7N2ArgMFZd-4" value="fact_sales" style="rounded=1;whiteSpace=wrap;html=1;fillColor=#fff2cc;strokeColor=#d6b656;" vertex="1" parent="1">
          <mxGeometry x="660" y="186.25" width="130" height="37.5" as="geometry" />
        </mxCell>
        <mxCell id="oGLjbm6Eyn7N2ArgMFZd-5" value="dim_customers" style="rounded=1;whiteSpace=wrap;html=1;fillColor=#fff2cc;strokeColor=#d6b656;" vertex="1" parent="1">
          <mxGeometry x="660" y="291.25" width="130" height="37.5" as="geometry" />
        </mxCell>
        <mxCell id="oGLjbm6Eyn7N2ArgMFZd-6" value="dim_products" style="rounded=1;whiteSpace=wrap;html=1;fillColor=#fff2cc;strokeColor=#d6b656;" vertex="1" parent="1">
          <mxGeometry x="660" y="380" width="130" height="37.5" as="geometry" />
        </mxCell>
        <mxCell id="oGLjbm6Eyn7N2ArgMFZd-11" style="edgeStyle=orthogonalEdgeStyle;rounded=0;orthogonalLoop=1;jettySize=auto;html=1;entryX=0.394;entryY=0.933;entryDx=0;entryDy=0;entryPerimeter=0;" edge="1" parent="1" source="VfR8MXw1W6IQDtvmbxLF-7" target="VfR8MXw1W6IQDtvmbxLF-2">
          <mxGeometry relative="1" as="geometry" />
        </mxCell>
        <mxCell id="oGLjbm6Eyn7N2ArgMFZd-16" value="" style="endArrow=classic;html=1;rounded=0;entryX=0;entryY=0.5;entryDx=0;entryDy=0;jumpStyle=gap;" edge="1" parent="1" target="oGLjbm6Eyn7N2ArgMFZd-4">
          <mxGeometry width="50" height="50" relative="1" as="geometry">
            <mxPoint x="570" y="207.5" as="sourcePoint" />
            <mxPoint x="620" y="157.5" as="targetPoint" />
            <Array as="points" />
          </mxGeometry>
        </mxCell>
        <mxCell id="oGLjbm6Eyn7N2ArgMFZd-17" value="" style="endArrow=classic;html=1;rounded=0;entryX=0;entryY=0.5;entryDx=0;entryDy=0;jumpStyle=gap;" edge="1" parent="1" target="oGLjbm6Eyn7N2ArgMFZd-5">
          <mxGeometry width="50" height="50" relative="1" as="geometry">
            <mxPoint x="570" y="252.5" as="sourcePoint" />
            <mxPoint x="660" y="250" as="targetPoint" />
            <Array as="points" />
          </mxGeometry>
        </mxCell>
        <mxCell id="oGLjbm6Eyn7N2ArgMFZd-18" value="" style="endArrow=classic;html=1;rounded=0;entryX=0;entryY=0.5;entryDx=0;entryDy=0;jumpStyle=gap;" edge="1" parent="1" target="oGLjbm6Eyn7N2ArgMFZd-6">
          <mxGeometry width="50" height="50" relative="1" as="geometry">
            <mxPoint x="560" y="300" as="sourcePoint" />
            <mxPoint x="650" y="357.5" as="targetPoint" />
            <Array as="points" />
          </mxGeometry>
        </mxCell>
        <mxCell id="oGLjbm6Eyn7N2ArgMFZd-20" value="" style="endArrow=classic;html=1;rounded=0;entryX=0;entryY=0.5;entryDx=0;entryDy=0;jumpStyle=gap;" edge="1" parent="1" target="oGLjbm6Eyn7N2ArgMFZd-5">
          <mxGeometry width="50" height="50" relative="1" as="geometry">
            <mxPoint x="570" y="349.25" as="sourcePoint" />
            <mxPoint x="670" y="448.25" as="targetPoint" />
            <Array as="points" />
          </mxGeometry>
        </mxCell>
        <mxCell id="oGLjbm6Eyn7N2ArgMFZd-21" value="" style="endArrow=classic;html=1;rounded=0;entryX=0;entryY=0.5;entryDx=0;entryDy=0;jumpStyle=gap;" edge="1" parent="1" target="oGLjbm6Eyn7N2ArgMFZd-5">
          <mxGeometry width="50" height="50" relative="1" as="geometry">
            <mxPoint x="570" y="399.25" as="sourcePoint" />
            <mxPoint x="670" y="498.25" as="targetPoint" />
            <Array as="points" />
          </mxGeometry>
        </mxCell>
        <mxCell id="oGLjbm6Eyn7N2ArgMFZd-22" value="" style="endArrow=classic;html=1;rounded=0;entryX=0;entryY=0.5;entryDx=0;entryDy=0;jumpStyle=gap;" edge="1" parent="1" target="oGLjbm6Eyn7N2ArgMFZd-6">
          <mxGeometry width="50" height="50" relative="1" as="geometry">
            <mxPoint x="570" y="450" as="sourcePoint" />
            <mxPoint x="670" y="549" as="targetPoint" />
            <Array as="points" />
          </mxGeometry>
        </mxCell>
      </root>
    </mxGraphModel>
  </diagram>
</mxfile>
